{
  "asset": {
    "version": "2.0",
    "generator": "3dpea GLTFExporter"
  },
  "scenes": [
    {
      "name": "AuxScene",
      "nodes": [
        11
      ]
    }
  ],
  "scene": 0,
  "nodes": [
    {
      "name": "PotWhite_MadeiraHouse_0",
      "extras": {
        "name": "PotWhite_MadeiraHouse_0"
      },
      "mesh": 0
    },
    {
      "matrix": [
        1,
        0,
        0,
        0,
        0,
        2.220446049250313e-16,
        -1,
        0,
        0,
        1.330101490020752,
        2.9534185986185334e-16,
        0,
        0,
        1.21356201171875,
        0,
        1
      ],
      "name": "PotWhite",
      "extras": {
        "name": "PotWhite"
      },
      "children": [
        0
      ]
    },
    {
      "name": "FlowerViolett_MadeiraHouse_0",
      "extras": {
        "name": "FlowerViolett_MadeiraHouse_0"
      },
      "mesh": 1
    },
    {
      "matrix": [
        1,
        0,
        0,
        0,
        0,
        1,
        0,
        0,
        0,
        0,
        1,
        0,
        -13.678218841552734,
        118.6854019165039,
        -0.18992388248443604,
        1
      ],
      "name": "Object_6",
      "extras": {
        "name": "Object_6"
      },
      "children": [
        2
      ]
    },
    {
      "matrix": [
        1,
        0,
        0,
        0,
        0,
        0.9999999999999866,
        1.6292068494294582e-7,
        0,
        0,
        -1.6292068494294582e-7,
        0.9999999999999866,
        0,
        -7.491069793701172,
        35.46824645996094,
        5.472041606903076,
        1
      ],
      "name": "FlowerViolett",
      "extras": {
        "name": "FlowerViolett"
      },
      "children": [
        3
      ]
    },
    {
      "name": "FLowerLeafs_MadeiraHouse_0",
      "extras": {
        "name": "FLowerLeafs_MadeiraHouse_0"
      },
      "mesh": 2
    },
    {
      "matrix": [
        1,
        0,
        0,
        0,
        0,
        1,
        0,
        0,
        0,
        0,
        1,
        0,
        -0.7190170288085938,
        46.16553497314453,
        2.0424375534057617,
        1
      ],
      "name": "Object_9",
      "extras": {
        "name": "Object_9"
      },
      "children": [
        5
      ]
    },
    {
      "matrix": [
        0.7305062692697258,
        5.960464700174613e-8,
        0.8943844183731877,
        0,
        -0.8163183944293471,
        0.47184665795796704,
        0.6667442594888328,
        0,
        -0.365441878750974,
        -1.0540036188955972,
        0.2984819959077344,
        0,
        2.1444668769836426,
        56.47197723388672,
        1.3676806688308716,
        1
      ],
      "name": "FLowerLeafs",
      "extras": {
        "name": "FLowerLeafs"
      },
      "children": [
        6
      ]
    },
    {
      "name": "RootNode",
      "extras": {
        "name": "RootNode"
      },
      "children": [
        1,
        4,
        7
      ]
    },
    {
      "matrix": [
        1,
        0,
        0,
        0,
        0,
        2.220446049250313e-16,
        1,
        0,
        0,
        -1,
        2.220446049250313e-16,
        0,
        0,
        0,
        0,
        1
      ],
      "name": "7594f3fea56149bab846dc99591597a0fbx",
      "extras": {
        "name": "7594f3fea56149bab846dc99591597a0.fbx"
      },
      "children": [
        8
      ]
    },
    {
      "matrix": [
        1,
        0,
        0,
        0,
        0,
        2.220446049250313e-16,
        -1,
        0,
        0,
        1,
        2.220446049250313e-16,
        0,
        0,
        0,
        0,
        1
      ],
      "name": "Sketchfab_model",
      "extras": {
        "name": "Sketchfab_model"
      },
      "children": [
        9
      ]
    },
    {
      "name": "low_poly_purple_flowers.glb",
      "children": [
        10
      ]
    }
  ],
  "bufferViews": [
    {
      "buffer": 0,
      "byteOffset": 0,
      "byteLength": 8388,
      "target": 34962,
      "byteStride": 12
    },
    {
      "buffer": 0,
      "byteOffset": 8388,
      "byteLength": 8388,
      "target": 34962,
      "byteStride": 12
    },
    {
      "buffer": 0,
      "byteOffset": 16776,
      "byteLength": 5592,
      "target": 34962,
      "byteStride": 8
    },
    {
      "buffer": 0,
      "byteOffset": 22368,
      "byteLength": 5856,
      "target": 34963
    },
    {
      "buffer": 0,
      "byteOffset": 28224,
      "byteLength": 549720,
      "target": 34962,
      "byteStride": 12
    },
    {
      "buffer": 0,
      "byteOffset": 577944,
      "byteLength": 549720,
      "target": 34962,
      "byteStride": 12
    },
    {
      "buffer": 0,
      "byteOffset": 1127664,
      "byteLength": 366480,
      "target": 34962,
      "byteStride": 8
    },
    {
      "buffer": 0,
      "byteOffset": 1494144,
      "byteLength": 235176,
      "target": 34963
    },
    {
      "buffer": 0,
      "byteOffset": 1729320,
      "byteLength": 111192,
      "target": 34962,
      "byteStride": 12
    },
    {
      "buffer": 0,
      "byteOffset": 1840512,
      "byteLength": 111192,
      "target": 34962,
      "byteStride": 12
    },
    {
      "buffer": 0,
      "byteOffset": 1951704,
      "byteLength": 74128,
      "target": 34962,
      "byteStride": 8
    },
    {
      "buffer": 0,
      "byteOffset": 2025832,
      "byteLength": 71832,
      "target": 34963
    }
  ],
  "buffers": [
    {
      "byteLength": 2097664,
      "uri": "data:application/octet-stream;base64,"
    }
  ],
  "accessors": [
    {
      "bufferView": 0,
      "componentType": 5126,
      "count": 699,
      "max": [
        0.9198933243751526,
        0.9672331809997559,
        1
      ],
      "min": [
        -0.9198932647705078,
        -0.9672330617904663,
        -1
      ],
      "type": "VEC3"
    },
    {
      "bufferView": 1,
      "componentType": 5126,
      "count": 699,
      "max": [
        39.162349700927734,
        37.245609283447266,
        50
      ],
      "min": [
        -39.162349700927734,
        -37.24560546875,
        0.6151561737060547
      ],
      "type": "VEC3"
    },
    {
      "bufferView": 2,
      "componentType": 5126,
      "count": 699,
      "max": [
        0.35905390977859497,
        0.7425618767738342
      ],
      "min": [
        0.005873173009604216,
        0.6360642910003662
      ],
      "type": "VEC2"
    },
    {
      "bufferView": 3,
      "componentType": 5123,
      "count": 2928,
      "max": [
        698
      ],
      "min": [
        0
      ],
      "type": "SCALAR"
    },
    {
      "bufferView": 4,
      "componentType": 5126,
      "count": 45810,
      "max": [
        0.9999634623527527,
        0.9998787045478821,
        1
      ],
      "min": [
        -0.9998201131820679,
        -0.999962329864502,
        -0.9999863505363464
      ],
      "type": "VEC3"
    },
    {
      "bufferView": 5,
      "componentType": 5126,
      "count": 45810,
      "max": [
        103.92967987060547,
        114.51180267333984,
        34.91990280151367
      ],
      "min": [
        -27.653013229370117,
        -120.99475860595703,
        -81.19566345214844
      ],
      "type": "VEC3"
    },
    {
      "bufferView": 6,
      "componentType": 5126,
      "count": 45810,
      "max": [
        0.4968341290950775,
        0.49002471566200256
      ],
      "min": [
        0.07934294641017914,
        0.25734180212020874
      ],
      "type": "VEC2"
    },
    {
      "bufferView": 7,
      "componentType": 5123,
      "count": 117588,
      "max": [
        45809
      ],
      "min": [
        0
      ],
      "type": "SCALAR"
    },
    {
      "bufferView": 8,
      "componentType": 5126,
      "count": 9266,
      "max": [
        0.9998084902763367,
        0.9998936653137207,
        0.9991634488105774
      ],
      "min": [
        -0.9997961521148682,
        -0.99991774559021,
        -0.9991634488105774
      ],
      "type": "VEC3"
    },
    {
      "bufferView": 9,
      "componentType": 5126,
      "count": 9266,
      "max": [
        78.42662048339844,
        51.91421127319336,
        0.635105550289154
      ],
      "min": [
        -88.10748291015625,
        -106.83931732177734,
        -78.45446014404297
      ],
      "type": "VEC3"
    },
    {
      "bufferView": 10,
      "componentType": 5126,
      "count": 9266,
      "max": [
        0.4659322500228882,
        0.4960430860519409
      ],
      "min": [
        0.0046277232468128204,
        0.40212517976760864
      ],
      "type": "VEC2"
    },
    {
      "bufferView": 11,
      "componentType": 5123,
      "count": 35916,
      "max": [
        9265
      ],
      "min": [
        0
      ],
      "type": "SCALAR"
    }
  ],
  "materials": [
    {
      "pbrMetallicRoughness": {
        "metallicFactor": 0,
        "roughnessFactor": 0.6,
        "baseColorTexture": {
          "index": 0
        }
      },
      "doubleSided": true,
      "name": "MadeiraHouse"
    },
    {
      "pbrMetallicRoughness": {
        "metallicFactor": 0,
        "roughnessFactor": 0.6,
        "baseColorTexture": {
          "index": 0
        }
      },
      "doubleSided": true,
      "name": "MadeiraHouse"
    },
    {
      "pbrMetallicRoughness": {
        "metallicFactor": 0,
        "roughnessFactor": 0.6,
        "baseColorTexture": {
          "index": 0
        }
      },
      "doubleSided": true,
      "name": "MadeiraHouse"
    }
  ],
  "textures": [
    {
      "sampler": 0,
      "source": 0
    }
  ],
  "samplers": [
    {
      "magFilter": 9729,
      "minFilter": 9987,
      "wrapS": 10497,
      "wrapT": 10497
    }
  ],
  "images": [
    {
      "mimeType": "image/png",
      "uri": "data:image/png;base64,"
    }
  ],
  "meshes": [
    {
      "primitives": [
        {
          "mode": 4,
          "attributes": {
            "NORMAL": 0,
            "POSITION": 1,
            "TEXCOORD_0": 2
          },
          "indices": 3,
          "material": 0
        }
      ]
    },
    {
      "primitives": [
        {
          "mode": 4,
          "attributes": {
            "NORMAL": 4,
            "POSITION": 5,
            "TEXCOORD_0": 6
          },
          "indices": 7,
          "material": 1
        }
      ]
    },
    {
      "primitives": [
        {
          "mode": 4,
          "attributes": {
            "NORMAL": 8,
            "POSITION": 9,
            "TEXCOORD_0": 10
          },
          "indices": 11,
          "material": 2
        }
      ]
    }
  ]
}